<?xml version="1.0" encoding="UTF-8"?>
<svg id="Layer_1" data-name="Layer 1" xmlns="http://www.w3.org/2000/svg" xmlns:xlink="http://www.w3.org/1999/xlink" viewBox="0 0 932.84 2493.86">
  <defs>
    <style>
      .cls-1 {
        fill: none;
      }

      .cls-2 {
        clip-path: url(#clippath-1);
      }

      .cls-3 {
        clip-path: url(#clippath-3);
      }

      .cls-4 {
        clip-path: url(#clippath-4);
      }

      .cls-5 {
        clip-path: url(#clippath-2);
      }

      .cls-6 {
        clip-path: url(#clippath-7);
      }

      .cls-7 {
        clip-path: url(#clippath-6);
      }

      .cls-8 {
        clip-path: url(#clippath-9);
      }

      .cls-9 {
        clip-path: url(#clippath-8);
      }

      .cls-10 {
        clip-path: url(#clippath-5);
      }

      .cls-11 {
        fill: #07713d;
      }

      .cls-12 {
        clip-path: url(#clippath);
      }
    </style>
    <clipPath id="clippath">
      <rect class="cls-1" width="412.84" height="413.86"/>
    </clipPath>
    <clipPath id="clippath-1">
      <rect class="cls-1" x="520" width="412.84" height="413.86"/>
    </clipPath>
    <clipPath id="clippath-2">
      <rect class="cls-1" y="520" width="412.84" height="413.86"/>
    </clipPath>
    <clipPath id="clippath-3">
      <rect class="cls-1" x="520" y="520" width="412.84" height="413.86"/>
    </clipPath>
    <clipPath id="clippath-4">
      <rect class="cls-1" y="1040" width="412.84" height="413.86"/>
    </clipPath>
    <clipPath id="clippath-5">
      <rect class="cls-1" x="520" y="1040" width="412.84" height="413.86"/>
    </clipPath>
    <clipPath id="clippath-6">
      <rect class="cls-1" y="1560" width="412.84" height="413.86"/>
    </clipPath>
    <clipPath id="clippath-7">
      <rect class="cls-1" x="520" y="1560" width="412.84" height="413.86"/>
    </clipPath>
    <clipPath id="clippath-8">
      <rect class="cls-1" y="2080" width="412.84" height="413.86"/>
    </clipPath>
    <clipPath id="clippath-9">
      <rect class="cls-1" x="520" y="2080" width="412.84" height="413.86"/>
    </clipPath>
  </defs>
  <g class="cls-12">
    <path class="cls-11" d="M403,2.06c-12.73.01-25.3.66-37.97,1-2.77.07-5.36.73-8.1,1.02-2.84.3-5.75,0-8.6-.02-6.99-.05-13.98,0-20.96,0-6.4,0-12.71-.26-19.08-.86-5.79-.54-11.88-.86-17.6-1.83-5.82-.99-11.55-.34-17.41-.31-6.72.04-13.44,0-20.15,0-13.2,0-26.4-.13-39.6,0-13.03.13-26.01.98-39.06,1-6.16.01-12.35.41-18.51.07-5.85-.32-11.33-1.23-17.24-1.1-13.44.29-26.77-.85-40.18-.97-14.66-.13-29.34-.01-44,0-15.2.01-30.32.99-45.54,1-8.36,0-8.38,13,0,13,6.5,0,13.01.11,19.5.01,6.79-.1,13.49-1.02,20.29-1,13.39.02,26.79,0,40.18,0s26.06,1,39.12,1c5.94,0,12.21-.63,18.13-.08,6.41.59,12.53,1.32,19.01,1.2,26.11-.49,52.18-1.12,78.3-1.12,12.55,0,25.1.12,37.64-.26,5.68-.17,11.18,1.06,16.85,1.26,6.61.24,13.15,1.59,19.76,1.98,28.48,1.65,56.79-1.95,85.22-1.98,8.36,0,8.38-13.01,0-13"/>
    <path class="cls-11" d="M412.84,402.23c-.01-6.41-.75-12.54-1.24-18.89-.48-6.22,1.01-12.5.42-18.8-1.1-11.83-2.76-23.97-2.11-35.89.35-6.3,1.49-12.45,1.58-18.8.05-3.42-.4-6.67-.59-10.07-.2-3.56.12-7.02-.35-10.58-.74-5.58-1.51-11.21-1.8-16.81-.34-6.55.79-13.15-.08-19.68-.74-5.58-1.24-10.64-.71-16.26.66-6.94,1.34-13.93,1.95-20.88.55-6.29.23-12.67.24-18.98.01-7.02.64-13.91.84-20.9.37-12.75.09-25.81-1.25-38.49-1.45-13.79-.95-27.52-.34-41.34.32-7.15.11-14.16.76-21.29.66-7.31,1.27-14.9.85-22.24-.4-6.96-1.51-13.88-2.01-20.84-.54-7.44-.63-14.93-1.73-22.33-.52-3.5-4.9-5.36-7.99-4.54-3.73.98-5.06,4.54-4.54,8,.92,6.19.82,12.63,1.27,18.87.46,6.41,1.22,12.72,1.89,19.1,1.31,12.53-1.52,25.18-1.43,37.7.11,13.86-1.48,27.73-.46,41.6.43,5.85.89,11.79,1.59,17.59.86,7.09.12,14.5.27,21.65.11,5.43-.44,10.67-.66,16.08-.31,7.66-.03,15.39-.04,23.06-.01,12.6-3.7,25.36-2.44,37.95.55,5.52,1.29,10.69,1.14,16.26-.17,6.5.34,12.79.61,19.22.13,3.06.95,6.08,1.27,9.12.29,2.71.02,5.32.1,8.02.21,7.21,1.02,14.13.15,21.38-1.63,13.56-.57,26.84.57,40.41.57,6.74.39,13.08,0,19.81-.18,3.1.43,6.24.75,9.33.43,4.19.53,8.25.54,12.46.01,8.36,13.01,8.38,13,0"/>
    <path class="cls-11" d="M403.72,399.35c-12.84,0-25.79-.53-38.55.65-12.32,1.14-24.93-.37-37.14-1.73-12.96-1.45-26.58-.34-39.63-.34-11.98,0-23.89-1.42-35.89-.29-5.7.54-11.45.88-17.17,1.24-6.65.43-13.25,1.81-19.89,2.01-12.81.4-25.43-1.8-38.26-1.56-26.09.49-52.11-2.07-78.24-1.31-13.88.41-27.54-2.23-41.43-2.4-14.2-.17-28.63,2.58-42.8.38-3.5-.54-6.95.89-8,4.54-.88,3.07,1.08,7.46,4.54,7.99,12.4,1.92,25.23,1.26,37.69.32,13-.98,25.78,1.15,38.68,2.15,12.87,1,26.18-.18,39.1-.12,13.07.06,26.12,1.55,39.19,1.59,6.26.02,12.52-.27,18.78-.24,6.59.03,13.02,1.25,19.58,1.51,12.88.51,25.78-1.2,38.57-2.57,11.77-1.27,24.05-1.54,35.87-.43,12.41,1.16,25.4.23,37.87.18,7.61-.03,15.1.66,22.66,1.41,7.04.7,13.9.69,20.99.7,6.77,0,13.45-.7,20.25-.7h23.22c8.36,0,8.38-13,0-13"/>
    <path class="cls-11" d="M18.79,405.13c-.04-6.55-1.01-12.91-1.37-19.42-.31-5.69-2.2-10.93-2.28-16.68-.09-6.58.42-12.86-.34-19.42-.35-3.06-.31-6.09-.3-9.17,0-3.5-.49-7.52-.02-10.99.3-2.21,1.28-4.25,1.65-6.46.55-3.29.85-6.71,1.24-10.04.73-6.28,1.84-12.98,1.63-19.31-.09-2.64-.52-5.22-.89-7.83-.25-1.73-.62-2.91-1.08-4.56-1.13-4.05.04,1.62-.4-1.53-.92-6.66-1.08-13.35-.98-20.09.19-12.74,2.5-25.32,2.42-38.02-.04-6.07-.5-12.02-1.05-18.06-.65-7.21-.36-14.52-.37-21.75-.02-13.69-.64-27.32-.72-40.99-.04-6.34-.19-12.7-.82-19.01-.71-7.14-2.07-14.07-2.03-21.28.04-7.42,0-14.85,0-22.27,0-7.09,1.03-14.1,1.54-21.17,1.05-14.74,2.73-29.3,2.75-44.1.01-8.36-12.99-8.38-13,0-.02,12.99-.99,25.9-2.3,38.82C.73,64.87.07,77.76.08,90.89c0,5.92-.31,11.94.31,17.83.79,7.57,2.07,14.96,2.36,22.58.52,13.42.88,26.9.9,40.33.02,13.08.07,25.97,1.07,39.01,1,12.98-.8,25.53-1.73,38.43-.47,6.48-.48,13.07-.31,19.57.07,2.93.33,5.79.68,8.7.14,1.14.13,2.16.24,3.28.23,2.34,1.08,3.94,1.65,6.1,1.31,4.95.72,10.34.12,15.34-.81,6.7-.68,13.9-2.43,20.43-3.58,13.37-.18,27.58-.67,41.23-.24,6.62.5,12.47,1.98,18.84.73,3.16.61,6.89.96,10.17.44,4.13.56,8.27.58,12.42.05,8.36,13.05,8.38,13,0"/>
  </g>
  <g class="cls-2">
    <path class="cls-11" d="M923,2.06c-12.73.01-25.3.66-37.97,1-2.77.07-5.36.73-8.1,1.02-2.84.3-5.75,0-8.6-.02-6.99-.05-13.98,0-20.96,0-6.4,0-12.71-.26-19.08-.86-5.79-.54-11.88-.86-17.6-1.83-5.82-.99-11.55-.34-17.41-.31-6.72.04-13.44,0-20.15,0-13.2,0-26.4-.13-39.6,0-13.03.13-26.01.98-39.06,1-6.16.01-12.35.41-18.51.07-5.85-.32-11.33-1.23-17.24-1.1-13.44.29-26.77-.85-40.18-.97-14.66-.13-29.34-.01-44,0-15.2.01-30.32.99-45.54,1-8.36,0-8.38,13,0,13,6.5,0,13.01.11,19.5.01,6.79-.1,13.49-1.02,20.29-1,13.39.02,26.79,0,40.18,0s26.06,1,39.12,1c5.94,0,12.21-.63,18.13-.08,6.41.59,12.53,1.32,19.01,1.2,26.11-.49,52.18-1.12,78.3-1.12,12.55,0,25.1.12,37.64-.26,5.68-.17,11.18,1.06,16.85,1.26,6.61.24,13.15,1.59,19.76,1.98,28.48,1.65,56.79-1.95,85.22-1.98,8.36,0,8.38-13.01,0-13"/>
    <path class="cls-11" d="M932.84,402.23c-.01-6.41-.75-12.54-1.24-18.89-.48-6.22,1.01-12.5.42-18.8-1.1-11.83-2.76-23.97-2.11-35.89.35-6.3,1.49-12.45,1.58-18.8.05-3.42-.4-6.67-.59-10.07-.2-3.56.12-7.02-.35-10.58-.74-5.58-1.51-11.21-1.8-16.81-.34-6.55.79-13.15-.08-19.68-.74-5.58-1.24-10.64-.71-16.26.66-6.94,1.34-13.93,1.95-20.88.55-6.29.23-12.67.24-18.98.01-7.02.64-13.91.84-20.9.37-12.75.09-25.81-1.25-38.49-1.45-13.79-.95-27.52-.34-41.34.32-7.15.11-14.16.76-21.29.66-7.31,1.27-14.9.85-22.24-.4-6.96-1.51-13.88-2.01-20.84-.54-7.44-.63-14.93-1.73-22.33-.52-3.5-4.9-5.36-7.99-4.54-3.73.98-5.06,4.54-4.54,8,.92,6.19.82,12.63,1.27,18.87.46,6.41,1.22,12.72,1.89,19.1,1.31,12.53-1.52,25.18-1.43,37.7.11,13.86-1.48,27.73-.46,41.6.43,5.85.89,11.79,1.59,17.59.86,7.09.12,14.5.27,21.65.11,5.43-.44,10.67-.66,16.08-.31,7.66-.03,15.39-.04,23.06-.01,12.6-3.7,25.36-2.44,37.95.55,5.52,1.29,10.69,1.14,16.26-.17,6.5.34,12.79.61,19.22.13,3.06.95,6.08,1.27,9.12.29,2.71.02,5.32.1,8.02.21,7.21,1.02,14.13.15,21.38-1.63,13.56-.57,26.84.57,40.41.57,6.74.39,13.08,0,19.81-.18,3.1.43,6.24.75,9.33.43,4.19.53,8.25.54,12.46.01,8.36,13.01,8.38,13,0"/>
    <path class="cls-11" d="M923.72,399.35c-12.84,0-25.79-.53-38.55.65-12.32,1.14-24.93-.37-37.14-1.73-12.96-1.45-26.58-.34-39.63-.34-11.98,0-23.89-1.42-35.89-.29-5.7.54-11.45.88-17.17,1.24-6.65.43-13.25,1.81-19.89,2.01-12.81.4-25.43-1.8-38.26-1.56-26.09.49-52.11-2.07-78.24-1.31-13.88.41-27.54-2.23-41.43-2.4-14.2-.17-28.63,2.58-42.8.38-3.5-.54-6.95.89-8,4.54-.88,3.07,1.08,7.46,4.54,7.99,12.4,1.92,25.23,1.26,37.69.32,13-.98,25.78,1.15,38.68,2.15,12.87,1,26.18-.18,39.1-.12,13.07.06,26.12,1.55,39.19,1.59,6.26.02,12.52-.27,18.78-.24,6.59.03,13.02,1.25,19.58,1.51,12.88.51,25.78-1.2,38.57-2.57,11.77-1.27,24.05-1.54,35.87-.43,12.41,1.16,25.4.23,37.87.18,7.61-.03,15.1.66,22.66,1.41,7.04.7,13.9.69,20.99.7,6.77,0,13.45-.7,20.25-.7h23.22c8.36,0,8.38-13,0-13"/>
    <path class="cls-11" d="M538.79,405.13c-.04-6.55-1.01-12.91-1.37-19.42-.31-5.69-2.2-10.93-2.28-16.68-.09-6.58.42-12.86-.34-19.42-.35-3.06-.31-6.09-.3-9.17,0-3.5-.49-7.52-.02-10.99.3-2.21,1.28-4.25,1.65-6.46.55-3.29.85-6.71,1.24-10.04.73-6.28,1.84-12.98,1.63-19.31-.09-2.64-.52-5.22-.89-7.83-.25-1.73-.62-2.91-1.08-4.56-1.13-4.05.04,1.62-.4-1.53-.92-6.66-1.08-13.35-.98-20.09.19-12.74,2.5-25.32,2.42-38.02-.04-6.07-.5-12.02-1.05-18.06-.65-7.21-.36-14.52-.37-21.75-.02-13.69-.64-27.32-.72-40.99-.04-6.34-.19-12.7-.82-19.01-.71-7.14-2.07-14.07-2.03-21.28.04-7.42,0-14.85,0-22.27,0-7.09,1.03-14.1,1.54-21.17,1.05-14.74,2.73-29.3,2.75-44.1.01-8.36-12.99-8.38-13,0-.02,12.99-.99,25.9-2.3,38.82-1.33,13.07-1.99,25.95-1.99,39.08,0,5.92-.31,11.94.31,17.83.79,7.57,2.07,14.96,2.36,22.58.52,13.42.88,26.9.9,40.33.02,13.08.07,25.97,1.07,39.01,1,12.98-.8,25.53-1.73,38.43-.47,6.48-.48,13.07-.31,19.57.07,2.93.33,5.79.68,8.7.14,1.14.13,2.16.24,3.28.23,2.34,1.08,3.94,1.65,6.1,1.31,4.95.72,10.34.12,15.34-.81,6.7-.68,13.9-2.43,20.43-3.58,13.37-.18,27.58-.67,41.23-.24,6.62.5,12.47,1.98,18.84.73,3.16.61,6.89.96,10.17.44,4.13.56,8.27.58,12.42.05,8.36,13.05,8.38,13,0"/>
  </g>
  <g class="cls-5">
    <path class="cls-11" d="M403,522.06c-12.73.01-25.3.66-37.97,1-2.77.07-5.36.73-8.1,1.02-2.84.3-5.75,0-8.6-.02-6.99-.05-13.98,0-20.96,0-6.4,0-12.71-.26-19.08-.86-5.79-.54-11.88-.86-17.6-1.83-5.82-.99-11.55-.34-17.41-.31-6.72.04-13.44,0-20.15,0-13.2,0-26.4-.13-39.6,0-13.03.13-26.01.98-39.06,1-6.16.01-12.35.41-18.51.07-5.85-.32-11.33-1.23-17.24-1.1-13.44.29-26.77-.85-40.18-.97-14.66-.13-29.34-.01-44,0-15.2.01-30.32.99-45.54,1-8.36,0-8.38,13,0,13,6.5,0,13.01.11,19.5.01,6.79-.1,13.49-1.02,20.29-1,13.39.02,26.79,0,40.18,0s26.06,1,39.12,1c5.94,0,12.21-.63,18.13-.08,6.41.59,12.53,1.32,19.01,1.2,26.11-.49,52.18-1.12,78.3-1.12,12.55,0,25.1.12,37.64-.26,5.68-.17,11.18,1.06,16.85,1.26,6.61.24,13.15,1.59,19.76,1.98,28.48,1.65,56.79-1.95,85.22-1.98,8.36,0,8.38-13.01,0-13"/>
    <path class="cls-11" d="M412.84,922.23c-.01-6.41-.75-12.54-1.24-18.89-.48-6.22,1.01-12.5.42-18.8-1.1-11.83-2.76-23.97-2.11-35.89.35-6.3,1.49-12.45,1.58-18.8.05-3.42-.4-6.67-.59-10.07-.2-3.56.12-7.02-.35-10.58-.74-5.58-1.51-11.21-1.8-16.81-.34-6.55.79-13.15-.08-19.68-.74-5.58-1.24-10.64-.71-16.26.66-6.94,1.34-13.93,1.95-20.88.55-6.29.23-12.67.24-18.98.01-7.02.64-13.91.84-20.9.37-12.75.09-25.81-1.25-38.49-1.45-13.79-.95-27.52-.34-41.34.32-7.15.11-14.16.76-21.29.66-7.31,1.27-14.9.85-22.24-.4-6.96-1.51-13.88-2.01-20.84-.54-7.44-.63-14.93-1.73-22.33-.52-3.5-4.9-5.36-7.99-4.54-3.73.98-5.06,4.54-4.54,8,.92,6.19.82,12.63,1.27,18.87.46,6.41,1.22,12.72,1.89,19.1,1.31,12.53-1.52,25.18-1.43,37.7.11,13.86-1.48,27.73-.46,41.6.43,5.85.89,11.79,1.59,17.59.86,7.09.12,14.5.27,21.65.11,5.43-.44,10.67-.66,16.08-.31,7.66-.03,15.39-.04,23.06-.01,12.6-3.7,25.36-2.44,37.95.55,5.52,1.29,10.69,1.14,16.26-.17,6.5.34,12.79.61,19.22.13,3.06.95,6.08,1.27,9.12.29,2.71.02,5.32.1,8.02.21,7.21,1.02,14.13.15,21.38-1.63,13.56-.57,26.84.57,40.41.57,6.74.39,13.08,0,19.81-.18,3.1.43,6.24.75,9.33.43,4.19.53,8.25.54,12.46.01,8.36,13.01,8.38,13,0"/>
    <path class="cls-11" d="M403.72,919.35c-12.84,0-25.79-.53-38.55.65-12.32,1.14-24.93-.37-37.14-1.73-12.96-1.45-26.58-.34-39.63-.34-11.98,0-23.89-1.42-35.89-.29-5.7.54-11.45.88-17.17,1.24-6.65.43-13.25,1.81-19.89,2.01-12.81.4-25.43-1.8-38.26-1.56-26.09.49-52.11-2.07-78.24-1.31-13.88.41-27.54-2.23-41.43-2.4-14.2-.17-28.63,2.58-42.8.38-3.5-.54-6.95.89-8,4.54-.88,3.07,1.08,7.46,4.54,7.99,12.4,1.92,25.23,1.26,37.69.32,13-.98,25.78,1.15,38.68,2.15,12.87,1,26.18-.18,39.1-.12,13.07.06,26.12,1.55,39.19,1.59,6.26.02,12.52-.27,18.78-.24,6.59.03,13.02,1.25,19.58,1.51,12.88.51,25.78-1.2,38.57-2.57,11.77-1.27,24.05-1.54,35.87-.43,12.41,1.16,25.4.23,37.87.18,7.61-.03,15.1.66,22.66,1.41,7.04.7,13.9.69,20.99.7,6.77,0,13.45-.7,20.25-.7h23.22c8.36,0,8.38-13,0-13"/>
    <path class="cls-11" d="M18.79,925.13c-.04-6.55-1.01-12.91-1.37-19.42-.31-5.69-2.2-10.93-2.28-16.68-.09-6.58.42-12.86-.34-19.42-.35-3.06-.31-6.09-.3-9.17,0-3.5-.49-7.52-.02-10.99.3-2.21,1.28-4.25,1.65-6.46.55-3.29.85-6.71,1.24-10.04.73-6.28,1.84-12.98,1.63-19.31-.09-2.64-.52-5.22-.89-7.83-.25-1.73-.62-2.91-1.08-4.56-1.13-4.05.04,1.62-.4-1.53-.92-6.66-1.08-13.35-.98-20.09.19-12.74,2.5-25.32,2.42-38.02-.04-6.07-.5-12.02-1.05-18.06-.65-7.21-.36-14.52-.37-21.75-.02-13.69-.64-27.32-.72-40.99-.04-6.34-.19-12.7-.82-19.01-.71-7.14-2.07-14.07-2.03-21.28.04-7.42,0-14.85,0-22.27,0-7.09,1.03-14.1,1.54-21.17,1.05-14.74,2.73-29.3,2.75-44.1.01-8.36-12.99-8.38-13,0-.02,12.99-.99,25.9-2.3,38.82-1.33,13.07-1.99,25.95-1.99,39.08,0,5.92-.31,11.94.31,17.83.79,7.57,2.07,14.96,2.36,22.58.52,13.42.88,26.9.9,40.33.02,13.08.07,25.97,1.07,39.01,1,12.98-.8,25.53-1.73,38.43-.47,6.48-.48,13.07-.31,19.57.07,2.93.33,5.79.68,8.7.14,1.14.13,2.16.24,3.28.23,2.34,1.08,3.94,1.65,6.1,1.31,4.95.72,10.34.12,15.34-.81,6.7-.68,13.9-2.43,20.43-3.58,13.37-.18,27.58-.67,41.23-.24,6.62.5,12.47,1.98,18.84.73,3.16.61,6.89.96,10.17.44,4.13.56,8.27.58,12.42.05,8.36,13.05,8.38,13,0"/>
  </g>
  <g class="cls-3">
    <path class="cls-11" d="M923,522.06c-12.73.01-25.3.66-37.97,1-2.77.07-5.36.73-8.1,1.02-2.84.3-5.75,0-8.6-.02-6.99-.05-13.98,0-20.96,0-6.4,0-12.71-.26-19.08-.86-5.79-.54-11.88-.86-17.6-1.83-5.82-.99-11.55-.34-17.41-.31-6.72.04-13.44,0-20.15,0-13.2,0-26.4-.13-39.6,0-13.03.13-26.01.98-39.06,1-6.16.01-12.35.41-18.51.07-5.85-.32-11.33-1.23-17.24-1.1-13.44.29-26.77-.85-40.18-.97-14.66-.13-29.34-.01-44,0-15.2.01-30.32.99-45.54,1-8.36,0-8.38,13,0,13,6.5,0,13.01.11,19.5.01,6.79-.1,13.49-1.02,20.29-1,13.39.02,26.79,0,40.18,0s26.06,1,39.12,1c5.94,0,12.21-.63,18.13-.08,6.41.59,12.53,1.32,19.01,1.2,26.11-.49,52.18-1.12,78.3-1.12,12.55,0,25.1.12,37.64-.26,5.68-.17,11.18,1.06,16.85,1.26,6.61.24,13.15,1.59,19.76,1.98,28.48,1.65,56.79-1.95,85.22-1.98,8.36,0,8.38-13.01,0-13"/>
    <path class="cls-11" d="M932.84,922.23c-.01-6.41-.75-12.54-1.24-18.89-.48-6.22,1.01-12.5.42-18.8-1.1-11.83-2.76-23.97-2.11-35.89.35-6.3,1.49-12.45,1.58-18.8.05-3.42-.4-6.67-.59-10.07-.2-3.56.12-7.02-.35-10.58-.74-5.58-1.51-11.21-1.8-16.81-.34-6.55.79-13.15-.08-19.68-.74-5.58-1.24-10.64-.71-16.26.66-6.94,1.34-13.93,1.95-20.88.55-6.29.23-12.67.24-18.98.01-7.02.64-13.91.84-20.9.37-12.75.09-25.81-1.25-38.49-1.45-13.79-.95-27.52-.34-41.34.32-7.15.11-14.16.76-21.29.66-7.31,1.27-14.9.85-22.24-.4-6.96-1.51-13.88-2.01-20.84-.54-7.44-.63-14.93-1.73-22.33-.52-3.5-4.9-5.36-7.99-4.54-3.73.98-5.06,4.54-4.54,8,.92,6.19.82,12.63,1.27,18.87.46,6.41,1.22,12.72,1.89,19.1,1.31,12.53-1.52,25.18-1.43,37.7.11,13.86-1.48,27.73-.46,41.6.43,5.85.89,11.79,1.59,17.59.86,7.09.12,14.5.27,21.65.11,5.43-.44,10.67-.66,16.08-.31,7.66-.03,15.39-.04,23.06-.01,12.6-3.7,25.36-2.44,37.95.55,5.52,1.29,10.69,1.14,16.26-.17,6.5.34,12.79.61,19.22.13,3.06.95,6.08,1.27,9.12.29,2.71.02,5.32.1,8.02.21,7.21,1.02,14.13.15,21.38-1.63,13.56-.57,26.84.57,40.41.57,6.74.39,13.08,0,19.81-.18,3.1.43,6.24.75,9.33.43,4.19.53,8.25.54,12.46.01,8.36,13.01,8.38,13,0"/>
    <path class="cls-11" d="M923.72,919.35c-12.84,0-25.79-.53-38.55.65-12.32,1.14-24.93-.37-37.14-1.73-12.96-1.45-26.58-.34-39.63-.34-11.98,0-23.89-1.42-35.89-.29-5.7.54-11.45.88-17.17,1.24-6.65.43-13.25,1.81-19.89,2.01-12.81.4-25.43-1.8-38.26-1.56-26.09.49-52.11-2.07-78.24-1.31-13.88.41-27.54-2.23-41.43-2.4-14.2-.17-28.63,2.58-42.8.38-3.5-.54-6.95.89-8,4.54-.88,3.07,1.08,7.46,4.54,7.99,12.4,1.92,25.23,1.26,37.69.32,13-.98,25.78,1.15,38.68,2.15,12.87,1,26.18-.18,39.1-.12,13.07.06,26.12,1.55,39.19,1.59,6.26.02,12.52-.27,18.78-.24,6.59.03,13.02,1.25,19.58,1.51,12.88.51,25.78-1.2,38.57-2.57,11.77-1.27,24.05-1.54,35.87-.43,12.41,1.16,25.4.23,37.87.18,7.61-.03,15.1.66,22.66,1.41,7.04.7,13.9.69,20.99.7,6.77,0,13.45-.7,20.25-.7h23.22c8.36,0,8.38-13,0-13"/>
    <path class="cls-11" d="M538.79,925.13c-.04-6.55-1.01-12.91-1.37-19.42-.31-5.69-2.2-10.93-2.28-16.68-.09-6.58.42-12.86-.34-19.42-.35-3.06-.31-6.09-.3-9.17,0-3.5-.49-7.52-.02-10.99.3-2.21,1.28-4.25,1.65-6.46.55-3.29.85-6.71,1.24-10.04.73-6.28,1.84-12.98,1.63-19.31-.09-2.64-.52-5.22-.89-7.83-.25-1.73-.62-2.91-1.08-4.56-1.13-4.05.04,1.62-.4-1.53-.92-6.66-1.08-13.35-.98-20.09.19-12.74,2.5-25.32,2.42-38.02-.04-6.07-.5-12.02-1.05-18.06-.65-7.21-.36-14.52-.37-21.75-.02-13.69-.64-27.32-.72-40.99-.04-6.34-.19-12.7-.82-19.01-.71-7.14-2.07-14.07-2.03-21.28.04-7.42,0-14.85,0-22.27,0-7.09,1.03-14.1,1.54-21.17,1.05-14.74,2.73-29.3,2.75-44.1.01-8.36-12.99-8.38-13,0-.02,12.99-.99,25.9-2.3,38.82-1.33,13.07-1.99,25.95-1.99,39.08,0,5.92-.31,11.94.31,17.83.79,7.57,2.07,14.96,2.36,22.58.52,13.42.88,26.9.9,40.33.02,13.08.07,25.97,1.07,39.01,1,12.98-.8,25.53-1.73,38.43-.47,6.48-.48,13.07-.31,19.57.07,2.93.33,5.79.68,8.7.14,1.14.13,2.16.24,3.28.23,2.34,1.08,3.94,1.65,6.1,1.31,4.95.72,10.34.12,15.34-.81,6.7-.68,13.9-2.43,20.43-3.58,13.37-.18,27.58-.67,41.23-.24,6.62.5,12.47,1.98,18.84.73,3.16.61,6.89.96,10.17.44,4.13.56,8.27.58,12.42.05,8.36,13.05,8.38,13,0"/>
  </g>
  <g class="cls-4">
    <path class="cls-11" d="M403,1042.06c-12.73.01-25.3.66-37.97,1-2.77.07-5.36.73-8.1,1.02-2.84.3-5.75,0-8.6-.02-6.99-.05-13.98,0-20.96,0-6.4,0-12.71-.26-19.08-.86-5.79-.54-11.88-.86-17.6-1.83-5.82-.99-11.55-.34-17.41-.31-6.72.04-13.44,0-20.15,0-13.2,0-26.4-.13-39.6,0-13.03.13-26.01.98-39.06,1-6.16.01-12.35.41-18.51.07-5.85-.32-11.33-1.23-17.24-1.1-13.44.29-26.77-.85-40.18-.97-14.66-.13-29.34-.01-44,0-15.2.01-30.32.99-45.54,1-8.36,0-8.38,13,0,13,6.5,0,13.01.11,19.5.01,6.79-.1,13.49-1.02,20.29-1,13.39.02,26.79,0,40.18,0s26.06,1,39.12,1c5.94,0,12.21-.63,18.13-.08,6.41.59,12.53,1.32,19.01,1.2,26.11-.49,52.18-1.12,78.3-1.12,12.55,0,25.1.12,37.64-.26,5.68-.17,11.18,1.06,16.85,1.26,6.61.24,13.15,1.59,19.76,1.98,28.48,1.65,56.79-1.95,85.22-1.98,8.36,0,8.38-13.01,0-13"/>
    <path class="cls-11" d="M412.84,1442.23c-.01-6.41-.75-12.54-1.24-18.89-.48-6.22,1.01-12.5.42-18.8-1.1-11.83-2.76-23.97-2.11-35.89.35-6.3,1.49-12.45,1.58-18.8.05-3.42-.4-6.67-.59-10.07-.2-3.56.12-7.02-.35-10.58-.74-5.58-1.51-11.21-1.8-16.81-.34-6.55.79-13.15-.08-19.68-.74-5.58-1.24-10.64-.71-16.26.66-6.94,1.34-13.93,1.95-20.88.55-6.29.23-12.67.24-18.98.01-7.02.64-13.91.84-20.9.37-12.75.09-25.81-1.25-38.49-1.45-13.79-.95-27.52-.34-41.34.32-7.15.11-14.16.76-21.29.66-7.31,1.27-14.9.85-22.24-.4-6.96-1.51-13.88-2.01-20.84-.54-7.44-.63-14.93-1.73-22.33-.52-3.5-4.9-5.36-7.99-4.54-3.73.98-5.06,4.54-4.54,8,.92,6.19.82,12.63,1.27,18.87.46,6.41,1.22,12.72,1.89,19.1,1.31,12.53-1.52,25.18-1.43,37.7.11,13.86-1.48,27.73-.46,41.6.43,5.85.89,11.79,1.59,17.59.86,7.09.12,14.5.27,21.65.11,5.43-.44,10.67-.66,16.08-.31,7.66-.03,15.39-.04,23.06-.01,12.6-3.7,25.36-2.44,37.95.55,5.52,1.29,10.69,1.14,16.26-.17,6.5.34,12.79.61,19.22.13,3.06.95,6.08,1.27,9.12.29,2.71.02,5.32.1,8.02.21,7.21,1.02,14.13.15,21.38-1.63,13.56-.57,26.84.57,40.41.57,6.74.39,13.08,0,19.81-.18,3.1.43,6.24.75,9.33.43,4.19.53,8.25.54,12.46.01,8.36,13.01,8.38,13,0"/>
    <path class="cls-11" d="M403.72,1439.35c-12.84,0-25.79-.53-38.55.65-12.32,1.14-24.93-.37-37.14-1.73-12.96-1.45-26.58-.34-39.63-.34-11.98,0-23.89-1.42-35.89-.29-5.7.54-11.45.88-17.17,1.24-6.65.43-13.25,1.81-19.89,2.01-12.81.4-25.43-1.8-38.26-1.56-26.09.49-52.11-2.07-78.24-1.31-13.88.41-27.54-2.23-41.43-2.4-14.2-.17-28.63,2.58-42.8.38-3.5-.54-6.95.89-8,4.54-.88,3.07,1.08,7.46,4.54,7.99,12.4,1.92,25.23,1.26,37.69.32,13-.98,25.78,1.15,38.68,2.15,12.87,1,26.18-.18,39.1-.12,13.07.06,26.12,1.55,39.19,1.59,6.26.02,12.52-.27,18.78-.24,6.59.03,13.02,1.25,19.58,1.51,12.88.51,25.78-1.2,38.57-2.57,11.77-1.27,24.05-1.54,35.87-.43,12.41,1.16,25.4.23,37.87.18,7.61-.03,15.1.66,22.66,1.41,7.04.7,13.9.69,20.99.7,6.77,0,13.45-.7,20.25-.7h23.22c8.36,0,8.38-13,0-13"/>
    <path class="cls-11" d="M18.79,1445.13c-.04-6.55-1.01-12.91-1.37-19.42-.31-5.69-2.2-10.93-2.28-16.68-.09-6.58.42-12.86-.34-19.42-.35-3.06-.31-6.09-.3-9.17,0-3.5-.49-7.52-.02-10.99.3-2.21,1.28-4.25,1.65-6.46.55-3.29.85-6.71,1.24-10.04.73-6.28,1.84-12.98,1.63-19.31-.09-2.64-.52-5.22-.89-7.83-.25-1.73-.62-2.91-1.08-4.56-1.13-4.05.04,1.62-.4-1.53-.92-6.66-1.08-13.35-.98-20.09.19-12.74,2.5-25.32,2.42-38.02-.04-6.07-.5-12.02-1.05-18.06-.65-7.21-.36-14.52-.37-21.75-.02-13.69-.64-27.32-.72-40.99-.04-6.34-.19-12.7-.82-19.01-.71-7.14-2.07-14.07-2.03-21.28.04-7.42,0-14.85,0-22.27,0-7.09,1.03-14.1,1.54-21.17,1.05-14.74,2.73-29.3,2.75-44.1.01-8.36-12.99-8.38-13,0-.02,12.99-.99,25.9-2.3,38.82-1.33,13.07-1.99,25.95-1.99,39.08,0,5.92-.31,11.94.31,17.83.79,7.57,2.07,14.96,2.36,22.58.52,13.42.88,26.9.9,40.33.02,13.08.07,25.97,1.07,39.01,1,12.98-.8,25.53-1.73,38.43-.47,6.48-.48,13.07-.31,19.57.07,2.93.33,5.79.68,8.7.14,1.14.13,2.16.24,3.28.23,2.34,1.08,3.94,1.65,6.1,1.31,4.95.72,10.34.12,15.34-.81,6.7-.68,13.9-2.43,20.43-3.58,13.37-.18,27.58-.67,41.23-.24,6.62.5,12.47,1.98,18.84.73,3.16.61,6.89.96,10.17.44,4.13.56,8.27.58,12.42.05,8.36,13.05,8.38,13,0"/>
  </g>
  <g class="cls-10">
    <path class="cls-11" d="M923,1042.06c-12.73.01-25.3.66-37.97,1-2.77.07-5.36.73-8.1,1.02-2.84.3-5.75,0-8.6-.02-6.99-.05-13.98,0-20.96,0-6.4,0-12.71-.26-19.08-.86-5.79-.54-11.88-.86-17.6-1.83-5.82-.99-11.55-.34-17.41-.31-6.72.04-13.44,0-20.15,0-13.2,0-26.4-.13-39.6,0-13.03.13-26.01.98-39.06,1-6.16.01-12.35.41-18.51.07-5.85-.32-11.33-1.23-17.24-1.1-13.44.29-26.77-.85-40.18-.97-14.66-.13-29.34-.01-44,0-15.2.01-30.32.99-45.54,1-8.36,0-8.38,13,0,13,6.5,0,13.01.11,19.5.01,6.79-.1,13.49-1.02,20.29-1,13.39.02,26.79,0,40.18,0s26.06,1,39.12,1c5.94,0,12.21-.63,18.13-.08,6.41.59,12.53,1.32,19.01,1.2,26.11-.49,52.18-1.12,78.3-1.12,12.55,0,25.1.12,37.64-.26,5.68-.17,11.18,1.06,16.85,1.26,6.61.24,13.15,1.59,19.76,1.98,28.48,1.65,56.79-1.95,85.22-1.98,8.36,0,8.38-13.01,0-13"/>
    <path class="cls-11" d="M932.84,1442.23c-.01-6.41-.75-12.54-1.24-18.89-.48-6.22,1.01-12.5.42-18.8-1.1-11.83-2.76-23.97-2.11-35.89.35-6.3,1.49-12.45,1.58-18.8.05-3.42-.4-6.67-.59-10.07-.2-3.56.12-7.02-.35-10.58-.74-5.58-1.51-11.21-1.8-16.81-.34-6.55.79-13.15-.08-19.68-.74-5.58-1.24-10.64-.71-16.26.66-6.94,1.34-13.93,1.95-20.88.55-6.29.23-12.67.24-18.98.01-7.02.64-13.91.84-20.9.37-12.75.09-25.81-1.25-38.49-1.45-13.79-.95-27.52-.34-41.34.32-7.15.11-14.16.76-21.29.66-7.31,1.27-14.9.85-22.24-.4-6.96-1.51-13.88-2.01-20.84-.54-7.44-.63-14.93-1.73-22.33-.52-3.5-4.9-5.36-7.99-4.54-3.73.98-5.06,4.54-4.54,8,.92,6.19.82,12.63,1.27,18.87.46,6.41,1.22,12.72,1.89,19.1,1.31,12.53-1.52,25.18-1.43,37.7.11,13.86-1.48,27.73-.46,41.6.43,5.85.89,11.79,1.59,17.59.86,7.09.12,14.5.27,21.65.11,5.43-.44,10.67-.66,16.08-.31,7.66-.03,15.39-.04,23.06-.01,12.6-3.7,25.36-2.44,37.95.55,5.52,1.29,10.69,1.14,16.26-.17,6.5.34,12.79.61,19.22.13,3.06.95,6.08,1.27,9.12.29,2.71.02,5.32.1,8.02.21,7.21,1.02,14.13.15,21.38-1.63,13.56-.57,26.84.57,40.41.57,6.74.39,13.08,0,19.81-.18,3.1.43,6.24.75,9.33.43,4.19.53,8.25.54,12.46.01,8.36,13.01,8.38,13,0"/>
    <path class="cls-11" d="M923.72,1439.35c-12.84,0-25.79-.53-38.55.65-12.32,1.14-24.93-.37-37.14-1.73-12.96-1.45-26.58-.34-39.63-.34-11.98,0-23.89-1.42-35.89-.29-5.7.54-11.45.88-17.17,1.24-6.65.43-13.25,1.81-19.89,2.01-12.81.4-25.43-1.8-38.26-1.56-26.09.49-52.11-2.07-78.24-1.31-13.88.41-27.54-2.23-41.43-2.4-14.2-.17-28.63,2.58-42.8.38-3.5-.54-6.95.89-8,4.54-.88,3.07,1.08,7.46,4.54,7.99,12.4,1.92,25.23,1.26,37.69.32,13-.98,25.78,1.15,38.68,2.15,12.87,1,26.18-.18,39.1-.12,13.07.06,26.12,1.55,39.19,1.59,6.26.02,12.52-.27,18.78-.24,6.59.03,13.02,1.25,19.58,1.51,12.88.51,25.78-1.2,38.57-2.57,11.77-1.27,24.05-1.54,35.87-.43,12.41,1.16,25.4.23,37.87.18,7.61-.03,15.1.66,22.66,1.41,7.04.7,13.9.69,20.99.7,6.77,0,13.45-.7,20.25-.7h23.22c8.36,0,8.38-13,0-13"/>
    <path class="cls-11" d="M538.79,1445.13c-.04-6.55-1.01-12.91-1.37-19.42-.31-5.69-2.2-10.93-2.28-16.68-.09-6.58.42-12.86-.34-19.42-.35-3.06-.31-6.09-.3-9.17,0-3.5-.49-7.52-.02-10.99.3-2.21,1.28-4.25,1.65-6.46.55-3.29.85-6.71,1.24-10.04.73-6.28,1.84-12.98,1.63-19.31-.09-2.64-.52-5.22-.89-7.83-.25-1.73-.62-2.91-1.08-4.56-1.13-4.05.04,1.62-.4-1.53-.92-6.66-1.08-13.35-.98-20.09.19-12.74,2.5-25.32,2.42-38.02-.04-6.07-.5-12.02-1.05-18.06-.65-7.21-.36-14.52-.37-21.75-.02-13.69-.64-27.32-.72-40.99-.04-6.34-.19-12.7-.82-19.01-.71-7.14-2.07-14.07-2.03-21.28.04-7.42,0-14.85,0-22.27,0-7.09,1.03-14.1,1.54-21.17,1.05-14.74,2.73-29.3,2.75-44.1.01-8.36-12.99-8.38-13,0-.02,12.99-.99,25.9-2.3,38.82-1.33,13.07-1.99,25.95-1.99,39.08,0,5.92-.31,11.94.31,17.83.79,7.57,2.07,14.96,2.36,22.58.52,13.42.88,26.9.9,40.33.02,13.08.07,25.97,1.07,39.01,1,12.98-.8,25.53-1.73,38.43-.47,6.48-.48,13.07-.31,19.57.07,2.93.33,5.79.68,8.7.14,1.14.13,2.16.24,3.28.23,2.34,1.08,3.94,1.65,6.1,1.31,4.95.72,10.34.12,15.34-.81,6.7-.68,13.9-2.43,20.43-3.58,13.37-.18,27.58-.67,41.23-.24,6.62.5,12.47,1.98,18.84.73,3.16.61,6.89.96,10.17.44,4.13.56,8.27.58,12.42.05,8.36,13.05,8.38,13,0"/>
  </g>
  <g class="cls-7">
    <path class="cls-11" d="M403,1562.06c-12.73.01-25.3.66-37.97,1-2.77.07-5.36.73-8.1,1.02-2.84.3-5.75,0-8.6-.02-6.99-.05-13.98,0-20.96,0-6.4,0-12.71-.26-19.08-.86-5.79-.54-11.88-.86-17.6-1.83-5.82-.99-11.55-.34-17.41-.31-6.72.04-13.44,0-20.15,0-13.2,0-26.4-.13-39.6,0-13.03.13-26.01.98-39.06,1-6.16.01-12.35.41-18.51.07-5.85-.32-11.33-1.23-17.24-1.1-13.44.29-26.77-.85-40.18-.97-14.66-.13-29.34-.01-44,0-15.2.01-30.32.99-45.54,1-8.36,0-8.38,13,0,13,6.5,0,13.01.11,19.5.01,6.79-.1,13.49-1.02,20.29-1,13.39.02,26.79,0,40.18,0s26.06,1,39.12,1c5.94,0,12.21-.63,18.13-.08,6.41.59,12.53,1.32,19.01,1.2,26.11-.49,52.18-1.12,78.3-1.12,12.55,0,25.1.12,37.64-.26,5.68-.17,11.18,1.06,16.85,1.26,6.61.24,13.15,1.59,19.76,1.98,28.48,1.65,56.79-1.95,85.22-1.98,8.36,0,8.38-13.01,0-13"/>
    <path class="cls-11" d="M412.84,1962.23c-.01-6.41-.75-12.54-1.24-18.89-.48-6.22,1.01-12.5.42-18.8-1.1-11.83-2.76-23.97-2.11-35.89.35-6.3,1.49-12.45,1.58-18.8.05-3.42-.4-6.67-.59-10.07-.2-3.56.12-7.02-.35-10.58-.74-5.58-1.51-11.21-1.8-16.81-.34-6.55.79-13.15-.08-19.68-.74-5.58-1.24-10.64-.71-16.26.66-6.94,1.34-13.93,1.95-20.88.55-6.29.23-12.67.24-18.98.01-7.02.64-13.91.84-20.9.37-12.75.09-25.81-1.25-38.49-1.45-13.79-.95-27.52-.34-41.34.32-7.15.11-14.16.76-21.29.66-7.31,1.27-14.9.85-22.24-.4-6.96-1.51-13.88-2.01-20.84-.54-7.44-.63-14.93-1.73-22.33-.52-3.5-4.9-5.36-7.99-4.54-3.73.98-5.06,4.54-4.54,8,.92,6.19.82,12.63,1.27,18.87.46,6.41,1.22,12.72,1.89,19.1,1.31,12.53-1.52,25.18-1.43,37.7.11,13.86-1.48,27.73-.46,41.6.43,5.85.89,11.79,1.59,17.59.86,7.09.12,14.5.27,21.65.11,5.43-.44,10.67-.66,16.08-.31,7.66-.03,15.39-.04,23.06-.01,12.6-3.7,25.36-2.44,37.95.55,5.52,1.29,10.69,1.14,16.26-.17,6.5.34,12.79.61,19.22.13,3.06.95,6.08,1.27,9.12.29,2.71.02,5.32.1,8.02.21,7.21,1.02,14.13.15,21.38-1.63,13.56-.57,26.84.57,40.41.57,6.74.39,13.08,0,19.81-.18,3.1.43,6.24.75,9.33.43,4.19.53,8.25.54,12.46.01,8.36,13.01,8.38,13,0"/>
    <path class="cls-11" d="M403.72,1959.35c-12.84,0-25.79-.53-38.55.65-12.32,1.14-24.93-.37-37.14-1.73-12.96-1.45-26.58-.34-39.63-.34-11.98,0-23.89-1.42-35.89-.29-5.7.54-11.45.88-17.17,1.24-6.65.43-13.25,1.81-19.89,2.01-12.81.4-25.43-1.8-38.26-1.56-26.09.49-52.11-2.07-78.24-1.31-13.88.41-27.54-2.23-41.43-2.4-14.2-.17-28.63,2.58-42.8.38-3.5-.54-6.95.89-8,4.54-.88,3.07,1.08,7.46,4.54,7.99,12.4,1.92,25.23,1.26,37.69.32,13-.98,25.78,1.15,38.68,2.15,12.87,1,26.18-.18,39.1-.12,13.07.06,26.12,1.55,39.19,1.59,6.26.02,12.52-.27,18.78-.24,6.59.03,13.02,1.25,19.58,1.51,12.88.51,25.78-1.2,38.57-2.57,11.77-1.27,24.05-1.54,35.87-.43,12.41,1.16,25.4.23,37.87.18,7.61-.03,15.1.66,22.66,1.41,7.04.7,13.9.69,20.99.7,6.77,0,13.45-.7,20.25-.7h23.22c8.36,0,8.38-13,0-13"/>
    <path class="cls-11" d="M18.79,1965.13c-.04-6.55-1.01-12.91-1.37-19.42-.31-5.69-2.2-10.93-2.28-16.68-.09-6.58.42-12.86-.34-19.42-.35-3.06-.31-6.09-.3-9.17,0-3.5-.49-7.52-.02-10.99.3-2.21,1.28-4.25,1.65-6.46.55-3.29.85-6.71,1.24-10.04.73-6.28,1.84-12.98,1.63-19.31-.09-2.64-.52-5.22-.89-7.83-.25-1.73-.62-2.91-1.08-4.56-1.13-4.05.04,1.62-.4-1.53-.92-6.66-1.08-13.35-.98-20.09.19-12.74,2.5-25.32,2.42-38.02-.04-6.07-.5-12.02-1.05-18.06-.65-7.21-.36-14.52-.37-21.75-.02-13.69-.64-27.32-.72-40.99-.04-6.34-.19-12.7-.82-19.01-.71-7.14-2.07-14.07-2.03-21.28.04-7.42,0-14.85,0-22.27,0-7.09,1.03-14.1,1.54-21.17,1.05-14.74,2.73-29.3,2.75-44.1.01-8.36-12.99-8.38-13,0-.02,12.99-.99,25.9-2.3,38.82-1.33,13.07-1.99,25.95-1.99,39.08,0,5.92-.31,11.94.31,17.83.79,7.57,2.07,14.96,2.36,22.58.52,13.42.88,26.9.9,40.33.02,13.08.07,25.97,1.07,39.01,1,12.98-.8,25.53-1.73,38.43-.47,6.48-.48,13.07-.31,19.57.07,2.93.33,5.79.68,8.7.14,1.14.13,2.16.24,3.28.23,2.34,1.08,3.94,1.65,6.1,1.31,4.95.72,10.34.12,15.34-.81,6.7-.68,13.9-2.43,20.43-3.58,13.37-.18,27.58-.67,41.23-.24,6.62.5,12.47,1.98,18.84.73,3.16.61,6.89.96,10.17.44,4.13.56,8.27.58,12.42.05,8.36,13.05,8.38,13,0"/>
  </g>
  <g class="cls-6">
    <path class="cls-11" d="M923,1562.06c-12.73.01-25.3.66-37.97,1-2.77.07-5.36.73-8.1,1.02-2.84.3-5.75,0-8.6-.02-6.99-.05-13.98,0-20.96,0-6.4,0-12.71-.26-19.08-.86-5.79-.54-11.88-.86-17.6-1.83-5.82-.99-11.55-.34-17.41-.31-6.72.04-13.44,0-20.15,0-13.2,0-26.4-.13-39.6,0-13.03.13-26.01.98-39.06,1-6.16.01-12.35.41-18.51.07-5.85-.32-11.33-1.23-17.24-1.1-13.44.29-26.77-.85-40.18-.97-14.66-.13-29.34-.01-44,0-15.2.01-30.32.99-45.54,1-8.36,0-8.38,13,0,13,6.5,0,13.01.11,19.5.01,6.79-.1,13.49-1.02,20.29-1,13.39.02,26.79,0,40.18,0s26.06,1,39.12,1c5.94,0,12.21-.63,18.13-.08,6.41.59,12.53,1.32,19.01,1.2,26.11-.49,52.18-1.12,78.3-1.12,12.55,0,25.1.12,37.64-.26,5.68-.17,11.18,1.06,16.85,1.26,6.61.24,13.15,1.59,19.76,1.98,28.48,1.65,56.79-1.95,85.22-1.98,8.36,0,8.38-13.01,0-13"/>
    <path class="cls-11" d="M932.84,1962.23c-.01-6.41-.75-12.54-1.24-18.89-.48-6.22,1.01-12.5.42-18.8-1.1-11.83-2.76-23.97-2.11-35.89.35-6.3,1.49-12.45,1.58-18.8.05-3.42-.4-6.67-.59-10.07-.2-3.56.12-7.02-.35-10.58-.74-5.58-1.51-11.21-1.8-16.81-.34-6.55.79-13.15-.08-19.68-.74-5.58-1.24-10.64-.71-16.26.66-6.94,1.34-13.93,1.95-20.88.55-6.29.23-12.67.24-18.98.01-7.02.64-13.91.84-20.9.37-12.75.09-25.81-1.25-38.49-1.45-13.79-.95-27.52-.34-41.34.32-7.15.11-14.16.76-21.29.66-7.31,1.27-14.9.85-22.24-.4-6.96-1.51-13.88-2.01-20.84-.54-7.44-.63-14.93-1.73-22.33-.52-3.5-4.9-5.36-7.99-4.54-3.73.98-5.06,4.54-4.54,8,.92,6.19.82,12.63,1.27,18.87.46,6.41,1.22,12.72,1.89,19.1,1.31,12.53-1.52,25.18-1.43,37.7.11,13.86-1.48,27.73-.46,41.6.43,5.85.89,11.79,1.59,17.59.86,7.09.12,14.5.27,21.65.11,5.43-.44,10.67-.66,16.08-.31,7.66-.03,15.39-.04,23.06-.01,12.6-3.7,25.36-2.44,37.95.55,5.52,1.29,10.69,1.14,16.26-.17,6.5.34,12.79.61,19.22.13,3.06.95,6.08,1.27,9.12.29,2.71.02,5.32.1,8.02.21,7.21,1.02,14.13.15,21.38-1.63,13.56-.57,26.84.57,40.41.57,6.74.39,13.08,0,19.81-.18,3.1.43,6.24.75,9.33.43,4.19.53,8.25.54,12.46.01,8.36,13.01,8.38,13,0"/>
    <path class="cls-11" d="M923.72,1959.35c-12.84,0-25.79-.53-38.55.65-12.32,1.14-24.93-.37-37.14-1.73-12.96-1.45-26.58-.34-39.63-.34-11.98,0-23.89-1.42-35.89-.29-5.7.54-11.45.88-17.17,1.24-6.65.43-13.25,1.81-19.89,2.01-12.81.4-25.43-1.8-38.26-1.56-26.09.49-52.11-2.07-78.24-1.31-13.88.41-27.54-2.23-41.43-2.4-14.2-.17-28.63,2.58-42.8.38-3.5-.54-6.95.89-8,4.54-.88,3.07,1.08,7.46,4.54,7.99,12.4,1.92,25.23,1.26,37.69.32,13-.98,25.78,1.15,38.68,2.15,12.87,1,26.18-.18,39.1-.12,13.07.06,26.12,1.55,39.19,1.59,6.26.02,12.52-.27,18.78-.24,6.59.03,13.02,1.25,19.58,1.51,12.88.51,25.78-1.2,38.57-2.57,11.77-1.27,24.05-1.54,35.87-.43,12.41,1.16,25.4.23,37.87.18,7.61-.03,15.1.66,22.66,1.41,7.04.7,13.9.69,20.99.7,6.77,0,13.45-.7,20.25-.7h23.22c8.36,0,8.38-13,0-13"/>
    <path class="cls-11" d="M538.79,1965.13c-.04-6.55-1.01-12.91-1.37-19.42-.31-5.69-2.2-10.93-2.28-16.68-.09-6.58.42-12.86-.34-19.42-.35-3.06-.31-6.09-.3-9.17,0-3.5-.49-7.52-.02-10.99.3-2.21,1.28-4.25,1.65-6.46.55-3.29.85-6.71,1.24-10.04.73-6.28,1.84-12.98,1.63-19.31-.09-2.64-.52-5.22-.89-7.83-.25-1.73-.62-2.91-1.08-4.56-1.13-4.05.04,1.62-.4-1.53-.92-6.66-1.08-13.35-.98-20.09.19-12.74,2.5-25.32,2.42-38.02-.04-6.07-.5-12.02-1.05-18.06-.65-7.21-.36-14.52-.37-21.75-.02-13.69-.64-27.32-.72-40.99-.04-6.34-.19-12.7-.82-19.01-.71-7.14-2.07-14.07-2.03-21.28.04-7.42,0-14.85,0-22.27,0-7.09,1.03-14.1,1.54-21.17,1.05-14.74,2.73-29.3,2.75-44.1.01-8.36-12.99-8.38-13,0-.02,12.99-.99,25.9-2.3,38.82-1.33,13.07-1.99,25.95-1.99,39.08,0,5.92-.31,11.94.31,17.83.79,7.57,2.07,14.96,2.36,22.58.52,13.42.88,26.9.9,40.33.02,13.08.07,25.97,1.07,39.01,1,12.98-.8,25.53-1.73,38.43-.47,6.48-.48,13.07-.31,19.57.07,2.93.33,5.79.68,8.7.14,1.14.13,2.16.24,3.28.23,2.34,1.08,3.94,1.65,6.1,1.31,4.95.72,10.34.12,15.34-.81,6.7-.68,13.9-2.43,20.43-3.58,13.37-.18,27.58-.67,41.23-.24,6.62.5,12.47,1.98,18.84.73,3.16.61,6.89.96,10.17.44,4.13.56,8.27.58,12.42.05,8.36,13.05,8.38,13,0"/>
  </g>
  <g class="cls-9">
    <path class="cls-11" d="M403,2082.06c-12.73.01-25.3.66-37.97,1-2.77.07-5.36.73-8.1,1.02-2.84.3-5.75,0-8.6-.02-6.99-.05-13.98,0-20.96,0-6.4,0-12.71-.26-19.08-.86-5.79-.54-11.88-.86-17.6-1.83-5.82-.99-11.55-.34-17.41-.31-6.72.04-13.44,0-20.15,0-13.2,0-26.4-.13-39.6,0-13.03.13-26.01.98-39.06,1-6.16.01-12.35.41-18.51.07-5.85-.32-11.33-1.23-17.24-1.1-13.44.29-26.77-.85-40.18-.97-14.66-.13-29.34-.01-44,0-15.2.01-30.32.99-45.54,1-8.36,0-8.38,13,0,13,6.5,0,13.01.11,19.5.01,6.79-.1,13.49-1.02,20.29-1,13.39.02,26.79,0,40.18,0s26.06,1,39.12,1c5.94,0,12.21-.63,18.13-.08,6.41.59,12.53,1.32,19.01,1.2,26.11-.49,52.18-1.12,78.3-1.12,12.55,0,25.1.12,37.64-.26,5.68-.17,11.18,1.06,16.85,1.26,6.61.24,13.15,1.59,19.76,1.98,28.48,1.65,56.79-1.95,85.22-1.98,8.36,0,8.38-13.01,0-13"/>
    <path class="cls-11" d="M412.84,2482.23c-.01-6.41-.75-12.54-1.24-18.89-.48-6.22,1.01-12.5.42-18.8-1.1-11.83-2.76-23.97-2.11-35.89.35-6.3,1.49-12.45,1.58-18.8.05-3.42-.4-6.67-.59-10.07-.2-3.56.12-7.02-.35-10.58-.74-5.58-1.51-11.21-1.8-16.81-.34-6.55.79-13.15-.08-19.68-.74-5.58-1.24-10.64-.71-16.26.66-6.94,1.34-13.93,1.95-20.88.55-6.29.23-12.67.24-18.98.01-7.02.64-13.91.84-20.9.37-12.75.09-25.81-1.25-38.49-1.45-13.79-.95-27.52-.34-41.34.32-7.15.11-14.16.76-21.29.66-7.31,1.27-14.9.85-22.24-.4-6.96-1.51-13.88-2.01-20.84-.54-7.44-.63-14.93-1.73-22.33-.52-3.5-4.9-5.36-7.99-4.54-3.73.98-5.06,4.54-4.54,8,.92,6.19.82,12.63,1.27,18.87.46,6.41,1.22,12.72,1.89,19.1,1.31,12.53-1.52,25.18-1.43,37.7.11,13.86-1.48,27.73-.46,41.6.43,5.85.89,11.79,1.59,17.59.86,7.09.12,14.5.27,21.65.11,5.43-.44,10.67-.66,16.08-.31,7.66-.03,15.39-.04,23.06-.01,12.6-3.7,25.36-2.44,37.95.55,5.52,1.29,10.69,1.14,16.26-.17,6.5.34,12.79.61,19.22.13,3.06.95,6.08,1.27,9.12.29,2.71.02,5.32.1,8.02.21,7.21,1.02,14.13.15,21.38-1.63,13.56-.57,26.84.57,40.41.57,6.74.39,13.08,0,19.81-.18,3.1.43,6.24.75,9.33.43,4.19.53,8.25.54,12.46.01,8.36,13.01,8.38,13,0"/>
    <path class="cls-11" d="M403.72,2479.35c-12.84,0-25.79-.53-38.55.65-12.32,1.14-24.93-.37-37.14-1.73-12.96-1.45-26.58-.34-39.63-.34-11.98,0-23.89-1.42-35.89-.29-5.7.54-11.45.88-17.17,1.24-6.65.43-13.25,1.81-19.89,2.01-12.81.4-25.43-1.8-38.26-1.56-26.09.49-52.11-2.07-78.24-1.31-13.88.41-27.54-2.23-41.43-2.4-14.2-.17-28.63,2.58-42.8.38-3.5-.54-6.95.89-8,4.54-.88,3.07,1.08,7.46,4.54,7.99,12.4,1.92,25.23,1.26,37.69.32,13-.98,25.78,1.15,38.68,2.15,12.87,1,26.18-.18,39.1-.12,13.07.06,26.12,1.55,39.19,1.59,6.26.02,12.52-.27,18.78-.24,6.59.03,13.02,1.25,19.58,1.51,12.88.51,25.78-1.2,38.57-2.57,11.77-1.27,24.05-1.54,35.87-.43,12.41,1.16,25.4.23,37.87.18,7.61-.03,15.1.66,22.66,1.41,7.04.7,13.9.69,20.99.7,6.77,0,13.45-.7,20.25-.7h23.22c8.36,0,8.38-13,0-13"/>
    <path class="cls-11" d="M18.79,2485.13c-.04-6.55-1.01-12.91-1.37-19.42-.31-5.69-2.2-10.93-2.28-16.68-.09-6.58.42-12.86-.34-19.42-.35-3.06-.31-6.09-.3-9.17,0-3.5-.49-7.52-.02-10.99.3-2.21,1.28-4.25,1.65-6.46.55-3.29.85-6.71,1.24-10.04.73-6.28,1.84-12.98,1.63-19.31-.09-2.64-.52-5.22-.89-7.83-.25-1.73-.62-2.91-1.08-4.56-1.13-4.05.04,1.62-.4-1.53-.92-6.66-1.08-13.35-.98-20.09.19-12.74,2.5-25.32,2.42-38.02-.04-6.07-.5-12.02-1.05-18.06-.65-7.21-.36-14.52-.37-21.75-.02-13.69-.64-27.32-.72-40.99-.04-6.34-.19-12.7-.82-19.01-.71-7.14-2.07-14.07-2.03-21.28.04-7.42,0-14.85,0-22.27,0-7.09,1.03-14.1,1.54-21.17,1.05-14.74,2.73-29.3,2.75-44.1.01-8.36-12.99-8.38-13,0-.02,12.99-.99,25.9-2.3,38.82-1.33,13.07-1.99,25.95-1.99,39.08,0,5.92-.31,11.94.31,17.83.79,7.57,2.07,14.96,2.36,22.58.52,13.42.88,26.9.9,40.33.02,13.08.07,25.97,1.07,39.01,1,12.98-.8,25.53-1.73,38.43-.47,6.48-.48,13.07-.31,19.57.07,2.93.33,5.79.68,8.7.14,1.14.13,2.16.24,3.28.23,2.34,1.08,3.94,1.65,6.1,1.31,4.95.72,10.34.12,15.34-.81,6.7-.68,13.9-2.43,20.43-3.58,13.37-.18,27.58-.67,41.23-.24,6.62.5,12.47,1.98,18.84.73,3.16.61,6.89.96,10.17.44,4.13.56,8.27.58,12.42.05,8.36,13.05,8.38,13,0"/>
  </g>
  <g class="cls-8">
    <path class="cls-11" d="M923,2082.06c-12.73.01-25.3.66-37.97,1-2.77.07-5.36.73-8.1,1.02-2.84.3-5.75,0-8.6-.02-6.99-.05-13.98,0-20.96,0-6.4,0-12.71-.26-19.08-.86-5.79-.54-11.88-.86-17.6-1.83-5.82-.99-11.55-.34-17.41-.31-6.72.04-13.44,0-20.15,0-13.2,0-26.4-.13-39.6,0-13.03.13-26.01.98-39.06,1-6.16.01-12.35.41-18.51.07-5.85-.32-11.33-1.23-17.24-1.1-13.44.29-26.77-.85-40.18-.97-14.66-.13-29.34-.01-44,0-15.2.01-30.32.99-45.54,1-8.36,0-8.38,13,0,13,6.5,0,13.01.11,19.5.01,6.79-.1,13.49-1.02,20.29-1,13.39.02,26.79,0,40.18,0s26.06,1,39.12,1c5.94,0,12.21-.63,18.13-.08,6.41.59,12.53,1.32,19.01,1.2,26.11-.49,52.18-1.12,78.3-1.12,12.55,0,25.1.12,37.64-.26,5.68-.17,11.18,1.06,16.85,1.26,6.61.24,13.15,1.59,19.76,1.98,28.48,1.65,56.79-1.95,85.22-1.98,8.36,0,8.38-13.01,0-13"/>
    <path class="cls-11" d="M932.84,2482.23c-.01-6.41-.75-12.54-1.24-18.89-.48-6.22,1.01-12.5.42-18.8-1.1-11.83-2.76-23.97-2.11-35.89.35-6.3,1.49-12.45,1.58-18.8.05-3.42-.4-6.67-.59-10.07-.2-3.56.12-7.02-.35-10.58-.74-5.58-1.51-11.21-1.8-16.81-.34-6.55.79-13.15-.08-19.68-.74-5.58-1.24-10.64-.71-16.26.66-6.94,1.34-13.93,1.95-20.88.55-6.29.23-12.67.24-18.98.01-7.02.64-13.91.84-20.9.37-12.75.09-25.81-1.25-38.49-1.45-13.79-.95-27.52-.34-41.34.32-7.15.11-14.16.76-21.29.66-7.31,1.27-14.9.85-22.24-.4-6.96-1.51-13.88-2.01-20.84-.54-7.44-.63-14.93-1.73-22.33-.52-3.5-4.9-5.36-7.99-4.54-3.73.98-5.06,4.54-4.54,8,.92,6.19.82,12.63,1.27,18.87.46,6.41,1.22,12.72,1.89,19.1,1.31,12.53-1.52,25.18-1.43,37.7.11,13.86-1.48,27.73-.46,41.6.43,5.85.89,11.79,1.59,17.59.86,7.09.12,14.5.27,21.65.11,5.43-.44,10.67-.66,16.08-.31,7.66-.03,15.39-.04,23.06-.01,12.6-3.7,25.36-2.44,37.95.55,5.52,1.29,10.69,1.14,16.26-.17,6.5.34,12.79.61,19.22.13,3.06.95,6.08,1.27,9.12.29,2.71.02,5.32.1,8.02.21,7.21,1.02,14.13.15,21.38-1.63,13.56-.57,26.84.57,40.41.57,6.74.39,13.08,0,19.81-.18,3.1.43,6.24.75,9.33.43,4.19.53,8.25.54,12.46.01,8.36,13.01,8.38,13,0"/>
    <path class="cls-11" d="M923.72,2479.35c-12.84,0-25.79-.53-38.55.65-12.32,1.14-24.93-.37-37.14-1.73-12.96-1.45-26.58-.34-39.63-.34-11.98,0-23.89-1.42-35.89-.29-5.7.54-11.45.88-17.17,1.24-6.65.43-13.25,1.81-19.89,2.01-12.81.4-25.43-1.8-38.26-1.56-26.09.49-52.11-2.07-78.24-1.31-13.88.41-27.54-2.23-41.43-2.4-14.2-.17-28.63,2.58-42.8.38-3.5-.54-6.95.89-8,4.54-.88,3.07,1.08,7.46,4.54,7.99,12.4,1.92,25.23,1.26,37.69.32,13-.98,25.78,1.15,38.68,2.15,12.87,1,26.18-.18,39.1-.12,13.07.06,26.12,1.55,39.19,1.59,6.26.02,12.52-.27,18.78-.24,6.59.03,13.02,1.25,19.58,1.51,12.88.51,25.78-1.2,38.57-2.57,11.77-1.27,24.05-1.54,35.87-.43,12.41,1.16,25.4.23,37.87.18,7.61-.03,15.1.66,22.66,1.41,7.04.7,13.9.69,20.99.7,6.77,0,13.45-.7,20.25-.7h23.22c8.36,0,8.38-13,0-13"/>
    <path class="cls-11" d="M538.79,2485.13c-.04-6.55-1.01-12.91-1.37-19.42-.31-5.69-2.2-10.93-2.28-16.68-.09-6.58.42-12.86-.34-19.42-.35-3.06-.31-6.09-.3-9.17,0-3.5-.49-7.52-.02-10.99.3-2.21,1.28-4.25,1.65-6.46.55-3.29.85-6.71,1.24-10.04.73-6.28,1.84-12.98,1.63-19.31-.09-2.64-.52-5.22-.89-7.83-.25-1.73-.62-2.91-1.08-4.56-1.13-4.05.04,1.62-.4-1.53-.92-6.66-1.08-13.35-.98-20.09.19-12.74,2.5-25.32,2.42-38.02-.04-6.07-.5-12.02-1.05-18.06-.65-7.21-.36-14.52-.37-21.75-.02-13.69-.64-27.32-.72-40.99-.04-6.34-.19-12.7-.82-19.01-.71-7.14-2.07-14.07-2.03-21.28.04-7.42,0-14.85,0-22.27,0-7.09,1.03-14.1,1.54-21.17,1.05-14.74,2.73-29.3,2.75-44.1.01-8.36-12.99-8.38-13,0-.02,12.99-.99,25.9-2.3,38.82-1.33,13.07-1.99,25.95-1.99,39.08,0,5.92-.31,11.94.31,17.83.79,7.57,2.07,14.96,2.36,22.58.52,13.42.88,26.9.9,40.33.02,13.08.07,25.97,1.07,39.01,1,12.98-.8,25.53-1.73,38.43-.47,6.48-.48,13.07-.31,19.57.07,2.93.33,5.79.68,8.7.14,1.14.13,2.16.24,3.28.23,2.34,1.08,3.94,1.65,6.1,1.31,4.95.72,10.34.12,15.34-.81,6.7-.68,13.9-2.43,20.43-3.58,13.37-.18,27.58-.67,41.23-.24,6.62.5,12.47,1.98,18.84.73,3.16.61,6.89.96,10.17.44,4.13.56,8.27.58,12.42.05,8.36,13.05,8.38,13,0"/>
  </g>
</svg>